<svg xmlns="http://www.w3.org/2000/svg" xmlns:svg="http://www.w3.org/2000/svg" id="svg5155" width="108.036" height="108.036" version="1.1" viewBox="0 0 28.584 28.584"><metadata id="metadata5152"/><g id="layer1" transform="translate(578.98866,156.50056)"><g id="g4987" transform="translate(-636.96074,-97.069009)"><g id="g4885" transform="translate(-51.404763,-92.415179)"><rect style="opacity:1;fill:#ffe52b;fill-opacity:1;fill-rule:nonzero;stroke:none;stroke-width:.5;stroke-miterlimit:4;stroke-dasharray:none;stroke-opacity:1" id="rect4881" width="28.584" height="28.584" x="109.377" y="32.984"/><path id="path4883" d="m 129.29336,47.273271 q 0,0.47009 -0.33578,0.805867 -0.31899,0.318989 -0.78908,0.318989 h -4.13007 l -4.18044,3.139528 q -0.28541,0.218256 -0.62119,0.235045 -0.33578,0.03358 -0.63798,-0.151101 -0.25183,-0.1511 -0.40293,-0.402934 -0.1511,-0.251833 -0.1511,-0.570823 V 43.8987 q 0,-0.47009 0.31899,-0.789079 0.33577,-0.335778 0.80586,-0.335778 0.47009,0 0.78908,0.335778 0.33578,0.318989 0.33578,0.789079 v 4.499428 l 2.70301,-2.031458 q 0.3022,-0.218256 0.67156,-0.218256 h 3.37457 V 43.8987 q 0,-0.47009 0.31899,-0.789079 0.33578,-0.335778 0.80587,-0.335778 0.47009,0 0.78908,0.335778 0.33578,0.318989 0.33578,0.789079 z" style="font-style:normal;font-variant:normal;font-weight:400;font-stretch:normal;font-size:16.78891182px;line-height:1.25;font-family:Fabricate;-inkscape-font-specification:'Fabricate, Normal';font-variant-ligatures:normal;font-variant-caps:normal;font-variant-numeric:normal;font-feature-settings:normal;text-align:start;letter-spacing:0;word-spacing:0;writing-mode:lr-tb;text-anchor:start;fill:#000;fill-opacity:1;stroke:none;stroke-width:.26458332"/></g></g></g></svg>